<svg width="32" height="32" viewBox="0 0 32 32" fill="#000" xmlns="http://www.w3.org/2000/svg">
    <path d="M15.327 2.234c-3.285-.119-6.357 2.365-7.78 6.528-3.079 1.102-5.084 3.033-5.467 5.318-.416 2.484.825 4.87 2.8 6.346a1.683 1.683 0 0 0 2.353-.34 1.683 1.683 0 0 0-.34-2.352c-1.115-.834-1.661-2.08-1.49-3.099.17-1.018.97-2.208 3.752-2.999a1.684 1.684 0 0 0 1.168-1.217c.925-3.728 2.995-4.89 4.888-4.822 1.893.068 3.926 1.494 4.598 4.672a1.684 1.684 0 0 0 1.623 1.334c2.1.026 3.377.545 4.118 1.152.74.607 1.034 1.32 1.077 2.12.086 1.6-1.083 3.342-2.75 3.58a1.683 1.683 0 0 0-1.426 1.905 1.683 1.683 0 0 0 1.898 1.433c3.565-.507 5.819-3.812 5.641-7.1a6.316 6.316 0 0 0-2.311-4.54c-1.214-.994-3.103-1.38-5.136-1.59-1.232-3.697-4.002-6.214-7.216-6.33Z"/>
    <path d="M11.748 14.652a1.683 1.683 0 0 0-2.038 1.226l-.464 1.88a1.683 1.683 0 0 0 1.226 2.038 1.683 1.683 0 0 0 2.038-1.226l.472-1.88a1.683 1.683 0 0 0-1.234-2.038zM10.041 21.346a1.683 1.683 0 0 0-2.037 1.226l-.464 1.88a1.683 1.683 0 0 0 1.226 2.038 1.683 1.683 0 0 0 2.038-1.226l.464-1.88a1.683 1.683 0 0 0-1.227-2.038ZM15.691 17.94a1.683 1.683 0 0 0-2.046 1.227l-.464 1.88a1.683 1.683 0 0 0 1.226 2.038 1.683 1.683 0 0 0 2.047-1.226l.463-1.88a1.683 1.683 0 0 0-1.226-2.038zM13.902 24.577a1.683 1.683 0 0 0-2.038 1.226l-.472 1.88a1.683 1.683 0 0 0 1.234 2.038 1.683 1.683 0 0 0 2.038-1.226l.464-1.88a1.683 1.683 0 0 0-1.226-2.038zM21.101 14.644a1.683 1.683 0 0 0-2.038 1.226l-.464 1.88a1.683 1.683 0 0 0 1.226 2.038 1.683 1.683 0 0 0 2.038-1.226l.464-1.88a1.683 1.683 0 0 0-1.226-2.038zM19.519 21.362a1.683 1.683 0 0 0-2.046 1.235l-.464 1.88a1.683 1.683 0 0 0 1.226 2.038 1.683 1.683 0 0 0 2.046-1.234l.464-1.873a1.683 1.683 0 0 0-1.226-2.046z"/>
</svg>
